PathFileType	4	(X/Y/Z)	C:/Users/beibeiliu/ov580/test_trc/User2\sequence.25_training_dense_right.trc
DataRate	CameraRate	NumFrames	NumMarkers	Units	OrigDataRate	OrigDataStartFrame	OrigNumFrames
120	120	22	19	mm	120	239	272
Frame#	Time	ThumbCMC			ThumbMCP			ThumbIP			ThumbTip			IndexMCP			IndexPIP			IndexTip			MiddleMCP			MiddlePIP			MiddleTip			RingMCP			RingPIP			RingTip			PinkyMCP			PinkyPIP			PinkyTip			BackHand1			BackHand2			BackHand3	
		X0	Y0	Z0	X1	Y1	Z1	X2	Y2	Z2	X3	Y3	Z3	X4	Y4	Z4	X5	Y5	Z5	X6	Y6	Z6	X7	Y7	Z7	X8	Y8	Z8	X9	Y9	Z9	X10	Y10	Z10	X11	Y11	Z11	X12	Y12	Z12	X13	Y13	Z13	X14	Y14	Z14	X15	Y15	Z15	X16	Y16	Z16	X17	Y17	Z17	X18	Y18	Z18	
238	1.98333	73.1464	-20.4726	76.3162	46.024	-22.8052	52.7298	22.3855	-24.226	24.8258	6.5291	-29.7178	8.95918	51.0502	-38.3564	0.040157	23.0212	-51.7525	9.22269	31.8401	-61.0413	43.8316	56.7048	-61.235	-2.07969	30.1993	-79.0705	20.5389	41.7441	-72.6692	54.3605	62.1821	-80.7481	0.838702	39.6899	-91.468	19.1114	60.3164	-76.7864	50.2229	87.864	-91.2881	2.01971	70.9698	-93.7458	-15.1404	56.6245	-95.6895	-36.2113	116.779	-60.1995	37.8456	130.195	-60.0951	69.3534	108.686	-26.8345	52.9919	
239	1.99167	73.8423	-18.9509	69.0811	49.2558	-20.8613	51.1593	24.6111	-22.2986	24.6841	7.3105	-27.6708	3.49868	49.8712	-35.6721	0.304953	22.4735	-49.9592	10.9083	35.8635	-54.5289	45.4663	52.7663	-65.3555	0.0283387	23.6653	-76.276	19.3132	34.9001	-64.7446	57.5705	51.8531	-87.244	5.72013	30.7697	-88.3641	28.297	53.9953	-75.1294	55.0052	78.4792	-100.165	9.7599	59.4333	-101.186	-7.85392	45.8505	-107.529	-30.9053	108.35	-71.0923	37.2647	124.174	-66.1424	68.0177	110.155	-36.0697	53.9215	
240	2	79.3529	-23.4605	67.4811	49.9218	-17.2173	45.5723	28.0482	-20.9946	22.343	8.49033	-22.6732	5.67424	49.2781	-42.3653	-2.30796	23.6944	-50.8684	15.6848	42.1607	-49.7069	43.2443	48.3197	-69.1992	1.15489	19.7012	-69.4438	20.3277	32.1424	-57.7372	59.587	47.3734	-87.0784	9.89001	25.0259	-81.758	31.3503	45.461	-69.7398	55.0973	68.8766	-106.142	9.59385	52.1346	-105.378	-5.18836	37.0718	-109.153	-23.9687	106.791	-82.0909	42.6643	123.97	-77.3408	73.4714	112.236	-44.0752	49.9276	
241	2.00833	83.6264	-24.3758	62.4895	53.6981	-18.6172	40.319	31.8764	-21.6681	15.9264	12.8871	-24.9481	-1.73264	53.2816	-44.2299	-2.93538	26.0862	-46.799	11.9935	47.3026	-46.2025	41.0216	47.9207	-69.5583	1.35898	17.5154	-63.3682	19.723	28.1639	-59.0441	57.4957	42.7883	-88.0288	11.0039	20.9327	-77.936	32.6417	43.7305	-69.9495	56.9295	62.7237	-108.664	16.1237	44.4513	-109.508	-2.10275	28.8684	-113.685	-24.3348	103.283	-88.0443	44.0123	117.213	-81.3018	74.2759	112.334	-52.1622	47.9784	
242	2.01667	87.6741	-27.3333	57.7272	60.653	-22.8146	37.7031	36.0627	-19.3558	11.5319	19.0505	-22.7982	-2.11593	59.5812	-45.6628	-5.76674	29.0255	-44.9397	9.2796	49.5526	-49.8396	39.1289	48.29	-73.4451	1.52992	17.4687	-58.824	19.5684	26.6441	-53.7928	55.0697	41.6494	-90.0971	13.0043	19.0665	-73.6098	29.9691	45.3403	-67.3788	57.7018	57.0583	-112.328	20.7179	37.4213	-113.699	-1.63959	24.9808	-114.803	-23.1039	96.1603	-92.6843	44.1682	113.707	-88.9248	77.0714	113.969	-58.2259	51.7364	
243	2.025	93.179	-27.9097	58.1376	66.7729	-21.9046	34.0069	44.2578	-22.6135	6.19932	26.7642	-20.1041	-10.4202	57.829	-52.2176	-10.235	32.0882	-44.5414	4.4356	47.437	-48.2015	37.0075	50.283	-77.4227	0.684464	18.3399	-62.0542	14.1867	28.2388	-49.1777	52.1152	38.9477	-89.2718	11.6141	19.6222	-71.5718	26.1991	41.7659	-63.0286	52.6298	52.6364	-110.83	21.1757	34.1591	-112.141	0.0145162	21.0304	-113.531	-16.5778	92.393	-101.899	46.2777	108.955	-93.0091	77.3388	114.747	-64.4973	49.1	
244	2.03333	98.5415	-33.0641	55.5263	74.1719	-28.0677	28.4083	52.3747	-26.6431	-1.82631	36.7138	-23.5753	-18.1667	62.9325	-61.5373	-11.605	34.7251	-48.6804	-1.54873	46.3429	-47.2391	34.2044	51.7032	-79.8584	-1.70806	21.0726	-62.2085	12.8097	33.6738	-46.2913	48.5335	36.8403	-94.2861	11.7021	17.4756	-74.4239	25.7019	45.8387	-63.2819	51.9775	48.1336	-115.858	23.9421	31.2908	-113.538	3.13551	14.8346	-116.352	-18.2876	93.5204	-104.152	49.8174	106.612	-97.2502	80.1764	114.198	-72.547	45.7472	
245	2.04167	105.956	-40.8686	50.793	84.2353	-35.3754	21.9172	66.2729	-33.6096	-4.84962	49.001	-32.67	-24.4809	68.7113	-71.9107	-12.6508	42.2485	-52.4322	-11.0055	45.0875	-45.3841	27.6203	49.0203	-87.417	-1.73782	25.2751	-62.7599	8.45752	36.5085	-44.8381	41.6234	35.7501	-98.9399	13.0291	21.197	-71.1955	21.5472	43.0292	-64.1852	46.9741	41.2796	-118.488	24.4543	27.3733	-114.849	6.16673	14.0462	-115.572	-15.3591	86.5002	-110.657	50.6547	105.113	-101.477	82.9397	115.671	-80.576	49.0835	
246	2.05	115.274	-52.8119	42.8182	96.0794	-47.8271	14.2891	78.6161	-47.8897	-12.6214	63.7418	-47.8928	-34.7337	71.6367	-84.9372	-13.3854	47.8628	-59.0283	-14.7064	49.4469	-42.6879	14.9125	50.1602	-93.9492	-3.21625	30.6697	-64.2019	4.61097	50.7519	-45.3151	34.8102	39.8331	-100.328	9.37118	23.9145	-71.9352	16.4233	47.9248	-64.9521	42.1263	39.7839	-117.678	29.6639	26.3817	-116.781	11.0151	11.2797	-119.224	-14.7931	81.4542	-118.09	57.9189	100.264	-107.162	86.8562	117.428	-92.9104	50.3234	
247	2.05833	121.883	-62.1007	40.2996	104.966	-57.6181	10.3811	88.3467	-58.0385	-18.7986	77.2337	-55.7449	-40.213	75.9821	-92.6349	-15.2388	55.038	-64.5818	-17.6719	61.9139	-42.4619	9.89214	54.7288	-97.99	-3.83293	39.4054	-64.39	-1.25572	58.6625	-47.5616	27.3964	35.3127	-101.769	8.86494	27.4536	-72.9477	12.8295	53.7426	-65.2049	37.531	34.669	-118.595	30.7118	23.7162	-116.237	9.16836	8.27186	-118.301	-10.2767	78.787	-116.617	63.433	98.5748	-107.288	86.4468	116.137	-103.672	50.589	
248	2.06667	123.606	-68.0163	41.741	110.49	-63.0756	11.9261	93.3174	-66.6148	-20.4957	82.5847	-63.2846	-42.2837	76.1762	-96.8808	-14.7479	57.8685	-71.0918	-18.8317	64.5772	-47.5549	7.14121	51.4962	-99.8267	-3.03353	44.1027	-65.4602	-3.40732	64.6132	-50.7324	26.5978	39.4638	-102.694	10.5163	31.9627	-74.3945	6.39108	57.6772	-65.8325	34.8231	34.9946	-116.297	33.2827	21.6704	-114.89	10.736	5.9712	-118.692	-11.7853	77.7165	-118.498	63.8574	94.4599	-111.056	92.3836	112.665	-106.977	54.0792	
249	2.075	125.516	-71.7746	44.5253	111.492	-69.1927	9.76447	96.5767	-70.0646	-18.4306	84.1722	-68.8651	-43.5446	74.9565	-98.8762	-14.7109	61.7342	-70.4247	-20.1039	68.1494	-49.7147	7.15539	52.3625	-101.043	-3.49806	45.7947	-67.0075	-4.90129	68.0995	-52.9647	29.3206	38.453	-102.325	7.99324	33.2454	-72.8327	7.90929	58.849	-65.5704	33.8348	37.5142	-115.009	30.801	19.1725	-115.107	13.5107	7.77574	-116.109	-12.9322	79.9094	-119.059	62.0671	97.439	-109.914	92.1934	113.043	-110.939	57.7414	
250	2.08333	126.852	-74.278	39.3838	116.292	-67.4598	9.59729	99.8513	-71.2363	-22.3523	86.3844	-70.404	-40.8909	77.8361	-97.5477	-17.3508	61.5196	-72.9008	-19.8602	71.7781	-49.8996	5.14749	56.7234	-101.574	-2.04758	45.7415	-65.9668	-2.06739	69.4219	-54.5045	28.8842	39.2724	-104.91	13.1287	31.8838	-74.3988	7.20241	58.9875	-65.2986	34.215	35.9338	-114.47	32.6915	19.8098	-115.22	10.1702	7.85632	-115.368	-10.8238	81.1442	-118.564	63.7723	97.5538	-110.264	88.3312	115.268	-110.727	52.1921	
251	2.09167	130.083	-72.7431	40.0317	115.965	-67.448	12.9837	100.894	-69.2849	-18.2118	88.5861	-70.5726	-42.7375	82.3999	-98.9473	-14.7021	65.8943	-67.7275	-21.6837	74.3856	-49.0489	10.3696	60.2014	-100.824	-4.06189	48.5392	-64.4366	-2.52364	71.3345	-52.8264	26.7816	42.0044	-103.478	9.33119	31.8409	-73.4909	6.55432	59.5486	-65.0008	31.6061	35.5977	-114.791	32.8752	21.742	-112.992	9.15405	10.2826	-115.918	-12.3179	80.7123	-119.776	60.818	94.8075	-110.535	89.583	115.339	-109.623	52.7938	
252	2.1	129.164	-69.8908	41.014	116.341	-67.1641	9.46423	100.567	-67.6601	-19.8019	88.2132	-65.7252	-38.1336	78.3184	-98.5849	-12.9478	63.5209	-67.411	-19.7862	75.9751	-46.2286	8.68874	58.8738	-98.5588	-3.85092	46.1354	-65.2074	-2.91945	73.7685	-54.6095	29.0165	42.6308	-101.972	9.39181	32.5747	-72.1878	5.62674	59.6508	-63.1622	31.9405	40.2685	-112.452	30.0034	21.5093	-112.75	10.7422	8.60769	-114.245	-10.0957	79.6163	-118.802	63.333	95.8356	-110.474	91.072	115.096	-109.001	55.0405	
253	2.10833	128.437	-68.4284	39.694	115.996	-61.257	14.163	99.857	-64.2589	-22.2642	90.6425	-61.0388	-42.2643	81.824	-93.3573	-16.507	64.744	-63.9802	-21.5717	73.2762	-43.9683	4.84899	61.3029	-95.386	-5.39403	47.3101	-59.9803	-1.40106	73.322	-50.7597	28.5149	41.0285	-99.917	8.50002	34.5738	-71.3387	4.7874	60.1131	-61.4155	31.1589	38.2851	-111.407	31.6767	25.3515	-111.35	10.7135	11.1824	-113.71	-10.9157	79.5194	-115.231	60.4978	100.65	-109.887	87.7531	116.598	-106.883	54.8353	
254	2.11667	126.713	-61.7461	43.6696	112.008	-56.1735	14.4188	97.7048	-57.522	-17.0407	84.1323	-57.168	-38.5271	77.6719	-87.5647	-17.3084	61.9806	-62.2806	-19.297	73.9275	-38.9829	10.279	62.0444	-92.7685	-5.85167	46.7293	-58.042	-2.74922	70.8812	-48.9961	30.3957	43.0147	-97.0105	7.17815	35.3036	-66.4911	6.05497	60.8423	-61.2195	33.7461	39.4277	-112.702	30.2592	28.0678	-110.104	3.79818	15.4074	-110.324	-13.9868	82.2222	-114.713	62.0062	102.243	-108.502	83.6185	120.394	-100.991	52.6743	
255	2.125	126.372	-52.1458	44.4179	109.136	-48.3084	12.9455	94.5381	-45.9964	-18.6758	81.3375	-45.1504	-40.1838	81.9368	-81.0987	-16.3229	59.4853	-53.9835	-18.8279	67.2998	-34.873	13.9486	60.6813	-87.8401	-7.41772	42.7855	-57.0583	-1.25088	61.9949	-44.9416	29.7846	46.5384	-95.5814	8.45611	33.7576	-63.8544	11.1636	58.0637	-59.3503	34.5891	43.8989	-113.031	27.8941	30.1813	-110.749	4.46878	20.3122	-110.763	-15.5282	86.2788	-111.929	55.0832	107.029	-105.328	84.8391	122.637	-92.9081	47.885	
256	2.13333	119.684	-45.3734	43.7837	101.604	-37.9778	17.6814	86.2401	-36.9626	-13.0218	73.1567	-34.9852	-30.8653	78.0335	-71.3848	-16.3966	54.9973	-49.1559	-17.4566	57.4652	-32.6605	16.1133	61.9473	-85.2982	-5.55482	37.9137	-56.4253	2.05601	58.0284	-41.2194	34.4937	47.5269	-88.7828	3.67051	30.5526	-66.7372	15.0752	56.143	-57.7296	39.2466	49.4716	-112.366	21.2653	35.7528	-108.451	-0.434756	25.0477	-111.177	-16.7518	95.4061	-106.942	50.8904	112.797	-102.349	77.9994	125.082	-86.4132	49.5164	
257	2.14167	116.158	-31.5748	48.6277	94.4684	-28.4609	24.1031	78.306	-22.7692	-6.45007	63.9185	-24.7766	-27.3289	77.8489	-57.4925	-17.6923	47.9997	-43.9033	-9.7732	49.8281	-31.1048	21.1159	63.4776	-73.9106	-9.38275	36.3055	-53.1953	2.86972	50.6622	-40.7677	39.9258	50.0278	-84.9732	3.86252	31.1199	-63.7859	18.1723	55.5896	-56.2831	42.3716	55.7424	-108.753	18.7594	40.8404	-107.249	-0.637742	27.1209	-108.978	-23.9065	97.8701	-102.109	45.725	116.388	-97.5327	75.1348	126.058	-73.7323	47.8017	
258	2.15	108.16	-24.4863	54.2935	87.4044	-16.0479	24.9319	69.0401	-14.3698	-1.76855	52.8556	-14.9299	-23.2567	77.2514	-49.9593	-15.5205	44.2406	-38.352	-7.48643	44.1794	-33.5767	24.3232	62.3329	-69.2961	-6.76684	32.6949	-47.6547	7.86824	45.8879	-40.5366	44.9412	47.5643	-82.8735	4.40738	30.2858	-62.1349	20.8101	57.2319	-58.2922	47.0719	62.915	-103.147	16.8641	43.769	-105.957	-6.1995	32.7826	-102.586	-28.559	105.266	-94.6495	43.1843	117.129	-92.7233	73.1378	127.278	-62.3401	45.0913	
259	2.15833	102.047	-17.4768	56.9904	78.3529	-13.1337	31.9496	59.581	-9.26891	4.59328	42.9699	-8.14248	-14.1403	73.4919	-35.1685	-14.7967	42.7742	-31.2862	-4.6786	45.9281	-32.2321	31.6901	59.5469	-61.4944	-7.22626	31.7488	-46.1612	8.75226	38.2601	-44.3466	47.0502	54.7319	-75.8296	2.39734	31.1051	-64.7484	18.7889	54.4655	-55.0125	45.9303	66.3825	-101.398	9.10283	48.4683	-99.4913	-12.3403	39.1997	-99.0251	-30.3544	107.201	-89.2084	39.0613	120.023	-85.3581	74.3839	125.592	-49.289	48.5884	
